#!OML:ASF X:\für Bonn\!DataBase\2005_08_11_Bastian_Final\c3d\Bastian.ASF
:FULLY-SPECIFIED
:DEGREES
46
root 4.18949 17.0086 -3.48784 154.718 3.95773 -180.492
lowerback 24.6231 -6.87935 1.28846
upperback 10.396 -6.29792 0.244485
thorax -2.27816 -2.05475 1.11939
lowerneck -14.0425 -0.788528 6.21753
upperneck -1.2358 -1.64334 -1.66031
head 1.96885 -0.734613 -1.7232
rclavicle -2.8625e-014 -9.54166e-015
rhumerus 24.4745 41.2098 -77.2418
rradius 117.657
rwrist -3.67102
rhand -24.183 6.56081
rfingers 7.12502
rthumb 2.3006 -23.4065
lclavicle -2.8625e-014 -9.54166e-015
lhumerus -48.47 -26.5098 95.4656
lradius 96.8543
lwrist 47.4954
lhand -11.8788 -28.8676
lfingers 7.12502
lthumb 14.1738 0.628856
rfemur 8.27362 -6.43254 21.4606
rtibia 41.5966
rfoot -16.87 0.813218
rtoes 5.97022
lfemur -34.6676 24.1331 -1.78537
ltibia 128.83
lfoot -5.63769 -13.9344
ltoes -29.7627
47
root 4.19881 17.0239 -3.53541 153.141 4.68104 -180.871
lowerback 25.9 -6.67554 1.26456
upperback 10.9699 -5.78289 -0.112379
thorax -2.29398 -1.6826 0.679176
lowerneck -14.2194 -0.927874 6.39493
upperneck -1.17061 -1.86318 -1.71212
head 2.01227 -0.843588 -1.78888
rclavicle 9.15403e-014 -3.26007e-014
rhumerus 24.7965 41.1483 -77.0305
rradius 117.635
rwrist -3.54392
rhand -24.1008 6.2543
rfingers 7.12502
rthumb 2.38003 -23.7122
lclavicle 9.15403e-014 -3.26007e-014
lhumerus -49.4716 -26.1649 94.667
lradius 97.0181
lwrist 48.0805
lhand -11.8126 -28.6634
lfingers 7.12502
lthumb 14.2376 0.828579
rfemur 10.3088 -6.29228 20.9017
rtibia 41.1759
rfoot -16.4549 1.58112
rtoes 5.8093
lfemur -37.1261 26.9637 -1.22312
ltibia 131.426
lfoot -5.26942 -14.2312
ltoes -28.7304
48
root 4.20561 17.0378 -3.5843 151.556 5.45112 -181.257
lowerback 27.2053 -6.48034 1.2693
upperback 11.5307 -5.2605 -0.477101
thorax -2.31953 -1.29856 0.196645
lowerneck -14.3934 -1.06592 6.5827
upperneck -1.10245 -2.08403 -1.74461
head 2.05562 -0.952224 -1.85056
rclavicle -7.7526e-015 7.95139e-016
rhumerus 25.0078 41.1052 -76.8374
rradius 117.636
rwrist -3.44208
rhand -24.0751 6.05289
rfingers 7.12502
rthumb 2.40482 -23.9133
lclavicle -7.7526e-015 7.95139e-016
lhumerus -50.4662 -25.7967 93.89
lradius 97.3079
lwrist 48.4246
lhand -11.6243 -28.4271
lfingers 7.12502
lthumb 14.419 1.05206
rfemur 12.25 -6.19536 20.2867
rtibia 40.8659
rfoot -15.9944 2.49201
rtoes 5.50365
lfemur -39.8712 29.6756 -1.07828
ltibia 133.368
lfoot -4.82696 -14.6101
ltoes -28.8481
49
root 4.21087 17.0554 -3.63524 149.865 6.21436 -181.704
lowerback 28.6119 -6.28967 1.21694
upperback 12.1175 -4.72491 -0.855499
thorax -2.33421 -0.892853 -0.287406
lowerneck -14.6238 -1.20361 6.76498
upperneck -1.02174 -2.3069 -1.77173
head 2.11295 -1.06071 -1.91136
rclavicle -4.29375e-014 4.77083e-015
rhumerus 25.146 41.0852 -76.6157
rradius 117.682
rwrist -3.35147
rhand -24.151 5.88262
rfingers 7.12502
rthumb 2.33149 -24.0844
lclavicle -4.29375e-014 4.77083e-015
lhumerus -51.4382 -25.4838 93.1697
lradius 97.7296
lwrist 48.5827
lhand -11.4044 -28.1804
lfingers 7.12502
lthumb 14.6309 1.28352
rfemur 14.251 -6.0309 19.5888
rtibia 40.6256
rfoot -15.4731 3.40279
rtoes 5.35728
lfemur -42.9141 31.9381 -1.56918
ltibia 134.593
lfoot -4.59983 -15.1076
ltoes -30.7866
50
root 4.21647 17.0795 -3.68957 148.091 7.00359 -182.103
lowerback 30.0942 -6.11786 1.24749
upperback 12.7235 -4.15829 -1.23115
thorax -2.34011 -0.451877 -0.84305
lowerneck -14.8955 -1.36715 6.95354
upperneck -0.920093 -2.56897 -1.78771
head 2.1826 -1.18749 -1.97378
rclavicle -1.93815e-014 -1.66979e-014
rhumerus 25.247 40.9779 -76.3905
rradius 117.714
rwrist -3.3033
rhand -24.2321 5.7677
rfingers 7.12502
rthumb 2.25324 -24.2001
lclavicle -1.93815e-014 -1.66979e-014
lhumerus -52.4472 -25.2513 92.4604
lradius 98.3235
lwrist 48.5231
lhand -11.185 -27.973
lfingers 7.12502
lthumb 14.8422 1.47543
rfemur 16.2997 -5.86146 18.9308
rtibia 40.4103
rfoot -14.8311 4.37015
rtoes 5.2362
lfemur -46.2725 33.7594 -2.4528
ltibia 135.124
lfoot -4.2188 -15.7578
ltoes -33.2047
51
root 4.22322 17.114 -3.74699 146.182 7.75023 -182.521
lowerback 31.7282 -5.99232 1.07312
upperback 13.3532 -3.66211 -1.5742
thorax -2.33764 -0.0326492 -1.24207
lowerneck -15.1112 -1.45097 7.18577
upperneck -0.859068 -2.72686 -1.88425
head 2.23229 -1.26617 -2.06383
rclavicle 3.81667e-014 -1.74931e-014
rhumerus 25.4332 41.0299 -76.0896
rradius 117.758
rwrist -3.33162
rhand -24.2448 5.70856
rfingers 7.12502
rthumb 2.24089 -24.2594
lclavicle 3.81667e-014 -1.74931e-014
lhumerus -53.5785 -24.759 91.7931
lradius 99.1324
lwrist 48.2424
lhand -11.0016 -27.9116
lfingers 7.12502
lthumb 15.019 1.52367
rfemur 18.4386 -5.65405 18.2352
rtibia 40.2198
rfoot -14.0073 5.35736
rtoes 5.15456
lfemur -49.8286 34.9685 -3.74178
ltibia 134.935
lfoot -3.7735 -16.5684
ltoes -35.1927
52
root 4.23135 17.1612 -3.80648 144.225 8.49719 -182.897
lowerback 33.8431 -5.88095 0.898149
upperback 13.6559 -3.14095 -1.94644
thorax -2.42261 0.417404 -1.58486
lowerneck -15.0933 -1.56356 7.40701
upperneck -0.943398 -2.90351 -1.93354
head 2.18861 -1.35494 -2.12926
rclavicle 1.86858e-014 2.38542e-014
rhumerus 25.4399 41.0498 -75.8762
rradius 117.748
rwrist -3.26184
rhand -24.3078 5.83128
rfingers 7.12502
rthumb 2.18014 -24.1373
lclavicle 1.86858e-014 2.38542e-014
lhumerus -54.7736 -24.4023 91.1912
lradius 100.081
lwrist 47.8615
lhand -10.9392 -28.0916
lfingers 7.12502
lthumb 15.0791 1.33923
rfemur 20.4569 -5.39664 17.6175
rtibia 40.2601
rfoot -13.0169 6.32087
rtoes 5.08942
lfemur -53.4157 35.5173 -5.10695
ltibia 134.099
lfoot -3.0937 -17.5582
ltoes -35.8818
53
root 4.23902 17.2128 -3.86522 142.279 9.24472 -183.278
lowerback 35.579 -5.75915 0.677486
upperback 14.2358 -2.62047 -2.27217
thorax -2.38522 0.873482 -1.954
lowerneck -14.9797 -1.69631 7.51923
upperneck -1.11542 -3.07993 -1.92454
head 2.0987 -1.44267 -2.15072
rclavicle 1.68967e-014 -1.03368e-014
rhumerus 25.3452 41.0597 -75.7152
rradius 117.683
rwrist -3.11532
rhand -24.3058 6.06939
rfingers 7.12502
rthumb 2.18199 -23.8992
lclavicle 1.68967e-014 -1.03368e-014
lhumerus -55.9139 -24.1685 90.681
lradius 101.088
lwrist 47.4663
lhand -10.997 -28.4745
lfingers 7.12502
lthumb 15.0234 0.960427
rfemur 22.3106 -5.1168 17.0079
rtibia 40.4066
rfoot -11.7831 7.31553
rtoes 5.00043
lfemur -56.7038 35.5367 -6.37777
ltibia 132.529
lfoot -1.97031 -18.6582
ltoes -36.0596
